<?xml version="1.0" standalone="no"?>
<!DOCTYPE svg PUBLIC "-//W3C//DTD SVG 20010904//EN"
 "http://www.w3.org/TR/2001/REC-SVG-20010904/DTD/svg10.dtd">
<svg version="1.0" xmlns="http://www.w3.org/2000/svg"
 width="500.000000pt" height="500.000000pt" viewBox="0 0 500.000000 500.000000"
 preserveAspectRatio="xMidYMid meet">
<metadata>
Created by potrace 1.14, written by Peter Selinger 2001-2017
</metadata>
<g transform="translate(0.000000,500.000000) scale(0.100000,-0.100000)"
fill="#000000" stroke="none">
<path d="M2357 4934 c-1 -1 -36 -5 -77 -8 -205 -17 -503 -86 -660 -153 -19 -8
-46 -20 -60 -25 -14 -6 -37 -17 -52 -24 -14 -8 -30 -14 -35 -14 -19 0 -239
-125 -332 -188 -430 -292 -749 -696 -926 -1171 -41 -109 -94 -290 -100 -335
-1 -12 -5 -30 -8 -41 -3 -11 -8 -36 -11 -55 -2 -19 -10 -71 -16 -114 -12 -77
-17 -318 -10 -481 3 -91 39 -315 69 -431 189 -736 732 -1357 1441 -1646 182
-75 364 -124 565 -153 22 -4 51 -9 65 -12 45 -10 474 -12 535 -3 33 5 78 11
100 13 184 21 457 102 659 195 274 126 495 280 711 497 342 341 564 752 670
1240 4 16 8 45 11 65 2 19 6 42 9 50 20 70 28 462 12 610 -80 754 -497 1418
-1147 1826 -60 38 -79 48 -190 104 -264 134 -536 212 -860 247 -47 5 -359 11
-363 7z"/>
</g>
</svg>
